{
    "asset" : {
        "generator" : "Khronos glTF Blender I/O v1.0.5",
        "version" : "2.0"
    },
    "scene" : 0,
    "scenes" : [
        {
            "name" : "Scene",
            "nodes" : [
                0
            ]
        }
    ],
    "nodes" : [
        {
            "mesh" : 0,
            "name" : "\u9600\u95e8",
            "rotation" : [
                1,
                0,
                0,
                -1.3435885648505064e-07
            ],
            "scale" : [
                -0.032999999821186066,
                -0.032999999821186066,
                -0.032999999821186066
            ]
        }
    ],
    "materials" : [
        {
            "doubleSided" : true,
            "name" : "default.001",
            "pbrMetallicRoughness" : {
                "baseColorTexture" : {
                    "index" : 0,
                    "texCoord" : 0
                },
                "metallicFactor" : 0,
                "roughnessFactor" : 1
            }
        }
    ],
    "meshes" : [
        {
            "name" : "\u9600\u95e8.001",
            "primitives" : [
                {
                    "attributes" : {
                        "POSITION" : 0,
                        "NORMAL" : 1,
                        "TEXCOORD_0" : 2
                    },
                    "indices" : 3,
                    "material" : 0
                }
            ]
        }
    ],
    "textures" : [
        {
            "source" : 0
        }
    ],
    "images" : [
        {
            "bufferView" : 4,
            "mimeType" : "image/png",
            "name" : "Image_0"
        }
    ],
    "accessors" : [
        {
            "bufferView" : 0,
            "componentType" : 5126,
            "count" : 51002,
            "max" : [
                3775.235107421875,
                -21.041593551635742,
                3799.107177734375
            ],
            "min" : [
                -3775.235107421875,
                -1245.06298828125,
                -3799.107177734375
            ],
            "type" : "VEC3"
        },
        {
            "bufferView" : 1,
            "componentType" : 5126,
            "count" : 51002,
            "type" : "VEC3"
        },
        {
            "bufferView" : 2,
            "componentType" : 5126,
            "count" : 51002,
            "type" : "VEC2"
        },
        {
            "bufferView" : 3,
            "componentType" : 5123,
            "count" : 111516,
            "type" : "SCALAR"
        }
    ],
    "bufferViews" : [
        {
            "buffer" : 0,
            "byteLength" : 612024,
            "byteOffset" : 0
        },
        {
            "buffer" : 0,
            "byteLength" : 612024,
            "byteOffset" : 612024
        },
        {
            "buffer" : 0,
            "byteLength" : 408016,
            "byteOffset" : 1224048
        },
        {
            "buffer" : 0,
            "byteLength" : 223032,
            "byteOffset" : 1632064
        },
        {
            "buffer" : 0,
            "byteLength" : 113007,
            "byteOffset" : 1855096
        }
    ],
    "buffers" : [
        {
            "byteLength" : 1968104,
            "uri" : "data:application/octet-stream;base64,"
        }
    ]
}
