{
    "asset" : {
        "generator" : "Khronos glTF Blender I/O v1.0.5",
        "version" : "2.0"
    },
    "scene" : 0,
    "scenes" : [
        {
            "name" : "Scene",
            "nodes" : [
                0
            ]
        }
    ],
    "nodes" : [
        {
            "mesh" : 0,
            "name" : "\u7acb\u65b9\u4f53.000",
            "rotation" : [
                0,
                0.7071068286895752,
                -0.7071067094802856,
                1.5454308055495858e-08
            ],
            "scale" : [
                -0.0006089148228056729,
                -0.0006089149974286556,
                -0.0006089149974286556
            ]
        }
    ],
    "materials" : [
        {
            "alphaMode" : "BLEND",
            "doubleSided" : true,
            "name" : "default.002",
            "pbrMetallicRoughness" : {
                "baseColorTexture" : {
                    "index" : 0,
                    "texCoord" : 0
                },
                "metallicFactor" : 0,
                "roughnessFactor" : 1
            }
        }
    ],
    "meshes" : [
        {
            "name" : "\u7acb\u65b9\u4f53.000",
            "primitives" : [
                {
                    "attributes" : {
                        "POSITION" : 0,
                        "NORMAL" : 1,
                        "TEXCOORD_0" : 2
                    },
                    "indices" : 3,
                    "material" : 0
                }
            ]
        }
    ],
    "textures" : [
        {
            "source" : 0
        }
    ],
    "images" : [
        {
            "bufferView" : 4,
            "mimeType" : "image/png",
            "name" : "Image_0"
        }
    ],
    "accessors" : [
        {
            "bufferView" : 0,
            "componentType" : 5126,
            "count" : 20489,
            "max" : [
                1075.6343994140625,
                667.4015502929688,
                657.0449829101562
            ],
            "min" : [
                -1075.6343994140625,
                -667.4015502929688,
                0
            ],
            "type" : "VEC3"
        },
        {
            "bufferView" : 1,
            "componentType" : 5126,
            "count" : 20489,
            "type" : "VEC3"
        },
        {
            "bufferView" : 2,
            "componentType" : 5126,
            "count" : 20489,
            "type" : "VEC2"
        },
        {
            "bufferView" : 3,
            "componentType" : 5123,
            "count" : 61332,
            "type" : "SCALAR"
        }
    ],
    "bufferViews" : [
        {
            "buffer" : 0,
            "byteLength" : 245868,
            "byteOffset" : 0
        },
        {
            "buffer" : 0,
            "byteLength" : 245868,
            "byteOffset" : 245868
        },
        {
            "buffer" : 0,
            "byteLength" : 163912,
            "byteOffset" : 491736
        },
        {
            "buffer" : 0,
            "byteLength" : 122664,
            "byteOffset" : 655648
        },
        {
            "buffer" : 0,
            "byteLength" : 112352,
            "byteOffset" : 778312
        }
    ],
    "buffers" : [
        {
            "byteLength" : 890664,
            "uri" : "data:application/octet-stream;base64,"
        }
    ]
}
