{
    "asset" : {
        "generator" : "Khronos glTF Blender I/O v1.0.5",
        "version" : "2.0"
    },
    "scene" : 0,
    "scenes" : [
        {
            "name" : "Scene",
            "nodes" : [
                0
            ]
        }
    ],
    "nodes" : [
        {
            "mesh" : 0,
            "name" : "\u7acb\u65b9\u4f53.000",
            "rotation" : [
                0,
                1,
                0,
                2.1855690590655286e-08
            ],
            "scale" : [
                -0.0006089148228056729,
                -0.0006089149392209947,
                -0.0006089149392209947
            ]
        }
    ],
    "materials" : [
        {
            "alphaMode" : "BLEND",
            "doubleSided" : true,
            "name" : "default.001",
            "pbrMetallicRoughness" : {
                "baseColorTexture" : {
                    "index" : 0,
                    "texCoord" : 0
                },
                "metallicFactor" : 0,
                "roughnessFactor" : 1
            }
        }
    ],
    "meshes" : [
        {
            "name" : "\u7acb\u65b9\u4f53.005",
            "primitives" : [
                {
                    "attributes" : {
                        "POSITION" : 0,
                        "NORMAL" : 1,
                        "TEXCOORD_0" : 2
                    },
                    "indices" : 3,
                    "material" : 0
                }
            ]
        }
    ],
    "textures" : [
        {
            "source" : 0
        }
    ],
    "images" : [
        {
            "bufferView" : 4,
            "mimeType" : "image/png",
            "name" : "Image_0"
        }
    ],
    "accessors" : [
        {
            "bufferView" : 0,
            "componentType" : 5126,
            "count" : 19615,
            "max" : [
                1075.6343994140625,
                0,
                667.4015502929688
            ],
            "min" : [
                -1075.6343994140625,
                -657.0449829101562,
                -667.4015502929688
            ],
            "type" : "VEC3"
        },
        {
            "bufferView" : 1,
            "componentType" : 5126,
            "count" : 19615,
            "type" : "VEC3"
        },
        {
            "bufferView" : 2,
            "componentType" : 5126,
            "count" : 19615,
            "type" : "VEC2"
        },
        {
            "bufferView" : 3,
            "componentType" : 5123,
            "count" : 61332,
            "type" : "SCALAR"
        }
    ],
    "bufferViews" : [
        {
            "buffer" : 0,
            "byteLength" : 235380,
            "byteOffset" : 0
        },
        {
            "buffer" : 0,
            "byteLength" : 235380,
            "byteOffset" : 235380
        },
        {
            "buffer" : 0,
            "byteLength" : 156920,
            "byteOffset" : 470760
        },
        {
            "buffer" : 0,
            "byteLength" : 122664,
            "byteOffset" : 627680
        },
        {
            "buffer" : 0,
            "byteLength" : 113007,
            "byteOffset" : 750344
        }
    ],
    "buffers" : [
        {
            "byteLength" : 863352,
            "uri" : "data:application/octet-stream;base64,"
        }
    ]
}
