{
    "asset" : {
        "generator" : "Khronos glTF Blender I/O v1.0.5",
        "version" : "2.0"
    },
    "scene" : 0,
    "scenes" : [
        {
            "name" : "Scene",
            "nodes" : [
                0,
                1,
                2,
                3
            ]
        }
    ],
    "nodes" : [
        {
            "mesh" : 0,
            "name" : "Cube",
            "rotation" : [
                0.7071068286895752,
                0,
                0,
                0.7071067094802856
            ]
        },
        {
            "name" : "Light",
            "rotation" : [
                0.5232754945755005,
                0.34203392267227173,
                -0.7269423604011536,
                0.284166157245636
            ],
            "translation" : [
                4.076245307922363,
                5.903862476348877,
                -1.0054532289505005
            ]
        },
        {
            "name" : "Camera",
            "rotation" : [
                0.8937963247299194,
                0.09062855690717697,
                -0.3857799172401428,
                0.20997287333011627
            ],
            "translation" : [
                7.358891487121582,
                4.958308696746826,
                6.925792217254639
            ]
        },
        {
            "mesh" : 1,
            "name" : "\u9600\u95e8",
            "rotation" : [
                -0.7071065902709961,
                0,
                0,
                0.7071069478988647
            ],
            "scale" : [
                0.052403416484594345,
                0.052403416484594345,
                0.052403416484594345
            ]
        }
    ],
    "materials" : [
        {
            "doubleSided" : true,
            "name" : "Material.001",
            "pbrMetallicRoughness" : {
                "baseColorFactor" : [
                    0.800000011920929,
                    0.800000011920929,
                    0.800000011920929,
                    1
                ],
                "metallicFactor" : 0,
                "roughnessFactor" : 0.4000000059604645
            }
        },
        {
            "doubleSided" : true,
            "name" : "default.001",
            "pbrMetallicRoughness" : {
                "baseColorTexture" : {
                    "index" : 0,
                    "texCoord" : 0
                },
                "metallicFactor" : 0,
                "roughnessFactor" : 1
            }
        }
    ],
    "meshes" : [
        {
            "name" : "Cube.001",
            "primitives" : [
                {
                    "attributes" : {
                        "POSITION" : 0,
                        "NORMAL" : 1,
                        "TEXCOORD_0" : 2
                    },
                    "indices" : 3,
                    "material" : 0
                }
            ]
        },
        {
            "name" : "\u9600\u95e8.001",
            "primitives" : [
                {
                    "attributes" : {
                        "POSITION" : 4,
                        "NORMAL" : 5,
                        "TEXCOORD_0" : 6
                    },
                    "indices" : 7,
                    "material" : 1
                }
            ]
        }
    ],
    "textures" : [
        {
            "source" : 0
        }
    ],
    "images" : [
        {
            "bufferView" : 8,
            "mimeType" : "image/png",
            "name" : "dingbug_1_t_0"
        }
    ],
    "accessors" : [
        {
            "bufferView" : 0,
            "componentType" : 5126,
            "count" : 24,
            "max" : [
                1,
                1,
                1
            ],
            "min" : [
                -1,
                -1,
                -1
            ],
            "type" : "VEC3"
        },
        {
            "bufferView" : 1,
            "componentType" : 5126,
            "count" : 24,
            "type" : "VEC3"
        },
        {
            "bufferView" : 2,
            "componentType" : 5126,
            "count" : 24,
            "type" : "VEC2"
        },
        {
            "bufferView" : 3,
            "componentType" : 5123,
            "count" : 36,
            "type" : "SCALAR"
        },
        {
            "bufferView" : 4,
            "componentType" : 5126,
            "count" : 56715,
            "max" : [
                3775.235107421875,
                3799.107177734375,
                1245.06298828125
            ],
            "min" : [
                -3775.235107421875,
                -3799.107177734375,
                21.041593551635742
            ],
            "type" : "VEC3"
        },
        {
            "bufferView" : 5,
            "componentType" : 5126,
            "count" : 56715,
            "type" : "VEC3"
        },
        {
            "bufferView" : 6,
            "componentType" : 5126,
            "count" : 56715,
            "type" : "VEC2"
        },
        {
            "bufferView" : 7,
            "componentType" : 5123,
            "count" : 111516,
            "type" : "SCALAR"
        }
    ],
    "bufferViews" : [
        {
            "buffer" : 0,
            "byteLength" : 288,
            "byteOffset" : 0
        },
        {
            "buffer" : 0,
            "byteLength" : 288,
            "byteOffset" : 288
        },
        {
            "buffer" : 0,
            "byteLength" : 192,
            "byteOffset" : 576
        },
        {
            "buffer" : 0,
            "byteLength" : 72,
            "byteOffset" : 768
        },
        {
            "buffer" : 0,
            "byteLength" : 680580,
            "byteOffset" : 840
        },
        {
            "buffer" : 0,
            "byteLength" : 680580,
            "byteOffset" : 681420
        },
        {
            "buffer" : 0,
            "byteLength" : 453720,
            "byteOffset" : 1362000
        },
        {
            "buffer" : 0,
            "byteLength" : 223032,
            "byteOffset" : 1815720
        },
        {
            "buffer" : 0,
            "byteLength" : 69411,
            "byteOffset" : 2038752
        }
    ],
    "buffers" : [
        {
            "byteLength" : 2108164,
            "uri" : "data:application/octet-stream;base64,"
        }
    ]
}
