{
    "asset" : {
        "generator" : "Khronos glTF Blender I/O v1.0.5",
        "version" : "2.0"
    },
    "scene" : 0,
    "scenes" : [
        {
            "name" : "Scene",
            "nodes" : [
                0
            ]
        }
    ],
    "nodes" : [
        {
            "mesh" : 0,
            "name" : "\u9600\u95e8.005",
            "rotation" : [
                0.7071068286895752,
                0,
                0,
                0.7071067094802856
            ],
            "scale" : [
                0.033366356045007706,
                0.033366356045007706,
                0.033366356045007706
            ]
        }
    ],
    "materials" : [
        {
            "doubleSided" : true,
            "name" : "default.011",
            "pbrMetallicRoughness" : {
                "baseColorFactor" : [
                    1,
                    1,
                    1,
                    1
                ],
                "metallicFactor" : 0,
                "roughnessFactor" : 1
            }
        }
    ],
    "meshes" : [
        {
            "name" : "\u9600\u95e8.005",
            "primitives" : [
                {
                    "attributes" : {
                        "POSITION" : 0,
                        "NORMAL" : 1,
                        "TEXCOORD_0" : 2
                    },
                    "indices" : 3,
                    "material" : 0
                }
            ]
        }
    ],
    "accessors" : [
        {
            "bufferView" : 0,
            "componentType" : 5126,
            "count" : 33848,
            "max" : [
                3775.235107421875,
                3799.107177734375,
                0
            ],
            "min" : [
                -3775.235107421875,
                -3799.107177734375,
                -1245.06298828125
            ],
            "type" : "VEC3"
        },
        {
            "bufferView" : 1,
            "componentType" : 5126,
            "count" : 33848,
            "type" : "VEC3"
        },
        {
            "bufferView" : 2,
            "componentType" : 5126,
            "count" : 33848,
            "type" : "VEC2"
        },
        {
            "bufferView" : 3,
            "componentType" : 5123,
            "count" : 113595,
            "type" : "SCALAR"
        }
    ],
    "bufferViews" : [
        {
            "buffer" : 0,
            "byteLength" : 406176,
            "byteOffset" : 0
        },
        {
            "buffer" : 0,
            "byteLength" : 406176,
            "byteOffset" : 406176
        },
        {
            "buffer" : 0,
            "byteLength" : 270784,
            "byteOffset" : 812352
        },
        {
            "buffer" : 0,
            "byteLength" : 227190,
            "byteOffset" : 1083136
        }
    ],
    "buffers" : [
        {
            "byteLength" : 1310328,
            "uri" : "data:application/octet-stream;base64,"
        }
    ]
}
