{
    "asset" : {
        "generator" : "Khronos glTF Blender I/O v1.0.5",
        "version" : "2.0"
    },
    "scene" : 0,
    "scenes" : [
        {
            "name" : "Scene",
            "nodes" : [
                0
            ]
        }
    ],
    "nodes" : [
        {
            "mesh" : 0,
            "name" : "\u957f",
            "rotation" : [
                1,
                0,
                0,
                -1.3435885648505064e-07
            ],
            "scale" : [
                -0.032557595521211624,
                -0.032557595521211624,
                -0.032557595521211624
            ],
            "translation" : [
                0.8294764161109924,
                0,
                1.0584512948989868
            ]
        }
    ],
    "materials" : [
        {
            "doubleSided" : true,
            "name" : "default.005",
            "pbrMetallicRoughness" : {
                "baseColorTexture" : {
                    "index" : 0,
                    "texCoord" : 0
                },
                "metallicFactor" : 0,
                "roughnessFactor" : 1
            }
        }
    ],
    "meshes" : [
        {
            "name" : "\u957f.001",
            "primitives" : [
                {
                    "attributes" : {
                        "POSITION" : 0,
                        "NORMAL" : 1,
                        "TEXCOORD_0" : 2
                    },
                    "indices" : 3,
                    "material" : 0
                }
            ]
        }
    ],
    "textures" : [
        {
            "source" : 0
        }
    ],
    "images" : [
        {
            "bufferView" : 4,
            "mimeType" : "image/png",
            "name" : "Image_0"
        }
    ],
    "accessors" : [
        {
            "bufferView" : 0,
            "componentType" : 5126,
            "count" : 1532,
            "max" : [
                -3387.823486328125,
                -9.196124076843262,
                3029.083251953125
            ],
            "min" : [
                -3421.517578125,
                -513.1961059570312,
                -3780.9169921875
            ],
            "type" : "VEC3"
        },
        {
            "bufferView" : 1,
            "componentType" : 5126,
            "count" : 1532,
            "type" : "VEC3"
        },
        {
            "bufferView" : 2,
            "componentType" : 5126,
            "count" : 1532,
            "type" : "VEC2"
        },
        {
            "bufferView" : 3,
            "componentType" : 5123,
            "count" : 2088,
            "type" : "SCALAR"
        }
    ],
    "bufferViews" : [
        {
            "buffer" : 0,
            "byteLength" : 18384,
            "byteOffset" : 0
        },
        {
            "buffer" : 0,
            "byteLength" : 18384,
            "byteOffset" : 18384
        },
        {
            "buffer" : 0,
            "byteLength" : 12256,
            "byteOffset" : 36768
        },
        {
            "buffer" : 0,
            "byteLength" : 4176,
            "byteOffset" : 49024
        },
        {
            "buffer" : 0,
            "byteLength" : 113007,
            "byteOffset" : 53200
        }
    ],
    "buffers" : [
        {
            "byteLength" : 166208,
            "uri" : "data:application/octet-stream;base64,"
        }
    ]
}
