{
    "asset" : {
        "generator" : "Khronos glTF Blender I/O v1.0.5",
        "version" : "2.0"
    },
    "scene" : 0,
    "scenes" : [
        {
            "name" : "Scene",
            "nodes" : [
                0
            ]
        }
    ],
    "nodes" : [
        {
            "mesh" : 0,
            "name" : "\u77ed",
            "rotation" : [
                1,
                0,
                0,
                -1.3435885648505064e-07
            ],
            "scale" : [
                -0.03324628993868828,
                -0.03324628993868828,
                -0.03324628993868828
            ]
        }
    ],
    "materials" : [
        {
            "doubleSided" : true,
            "name" : "default.003",
            "pbrMetallicRoughness" : {
                "baseColorTexture" : {
                    "index" : 0,
                    "texCoord" : 0
                },
                "metallicFactor" : 0,
                "roughnessFactor" : 1
            }
        }
    ],
    "meshes" : [
        {
            "name" : "\u77ed.001",
            "primitives" : [
                {
                    "attributes" : {
                        "POSITION" : 0,
                        "NORMAL" : 1,
                        "TEXCOORD_0" : 2
                    },
                    "indices" : 3,
                    "material" : 0
                }
            ]
        }
    ],
    "textures" : [
        {
            "source" : 0
        }
    ],
    "images" : [
        {
            "bufferView" : 4,
            "mimeType" : "image/png",
            "name" : "Image_0"
        }
    ],
    "accessors" : [
        {
            "bufferView" : 0,
            "componentType" : 5126,
            "count" : 1624,
            "max" : [
                3292.5595703125,
                -12.812015533447266,
                3029.83837890625
            ],
            "min" : [
                -3407.4404296875,
                -516.81201171875,
                2996.144287109375
            ],
            "type" : "VEC3"
        },
        {
            "bufferView" : 1,
            "componentType" : 5126,
            "count" : 1624,
            "type" : "VEC3"
        },
        {
            "bufferView" : 2,
            "componentType" : 5126,
            "count" : 1624,
            "type" : "VEC2"
        },
        {
            "bufferView" : 3,
            "componentType" : 5123,
            "count" : 2052,
            "type" : "SCALAR"
        }
    ],
    "bufferViews" : [
        {
            "buffer" : 0,
            "byteLength" : 19488,
            "byteOffset" : 0
        },
        {
            "buffer" : 0,
            "byteLength" : 19488,
            "byteOffset" : 19488
        },
        {
            "buffer" : 0,
            "byteLength" : 12992,
            "byteOffset" : 38976
        },
        {
            "buffer" : 0,
            "byteLength" : 4104,
            "byteOffset" : 51968
        },
        {
            "buffer" : 0,
            "byteLength" : 113007,
            "byteOffset" : 56072
        }
    ],
    "buffers" : [
        {
            "byteLength" : 169080,
            "uri" : "data:application/octet-stream;base64,"
        }
    ]
}
