{
    "asset" : {
        "generator" : "Khronos glTF Blender I/O v1.0.5",
        "version" : "2.0"
    },
    "scene" : 0,
    "scenes" : [
        {
            "name" : "Scene",
            "nodes" : [
                0
            ]
        }
    ],
    "nodes" : [
        {
            "mesh" : 0,
            "name" : "\u7ba1\u9053.10",
            "rotation" : [
                0.7071068286895752,
                0,
                0,
                0.7071067094802856
            ],
            "scale" : [
                0.0327579528093338,
                0.0327579528093338,
                0.0327579528093338
            ]
        }
    ],
    "materials" : [
        {
            "doubleSided" : true,
            "name" : "default.003",
            "pbrMetallicRoughness" : {
                "baseColorTexture" : {
                    "index" : 0,
                    "texCoord" : 0
                },
                "metallicFactor" : 0,
                "roughnessFactor" : 1
            }
        }
    ],
    "meshes" : [
        {
            "name" : "\u7ba1\u9053.10",
            "primitives" : [
                {
                    "attributes" : {
                        "POSITION" : 0,
                        "NORMAL" : 1,
                        "TEXCOORD_0" : 2
                    },
                    "indices" : 3,
                    "material" : 0
                }
            ]
        }
    ],
    "textures" : [
        {
            "source" : 0
        }
    ],
    "images" : [
        {
            "bufferView" : 4,
            "mimeType" : "image/png",
            "name" : "\u4fa7\u9762g_1_w_2"
        }
    ],
    "accessors" : [
        {
            "bufferView" : 0,
            "componentType" : 5126,
            "count" : 31562,
            "max" : [
                3775.235107421875,
                3799.107177734375,
                7.000000215974869e-14
            ],
            "min" : [
                -3775.235107421875,
                -3799.107177734375,
                -1245.06298828125
            ],
            "type" : "VEC3"
        },
        {
            "bufferView" : 1,
            "componentType" : 5126,
            "count" : 31562,
            "type" : "VEC3"
        },
        {
            "bufferView" : 2,
            "componentType" : 5126,
            "count" : 31562,
            "type" : "VEC2"
        },
        {
            "bufferView" : 3,
            "componentType" : 5123,
            "count" : 105654,
            "type" : "SCALAR"
        }
    ],
    "bufferViews" : [
        {
            "buffer" : 0,
            "byteLength" : 378744,
            "byteOffset" : 0
        },
        {
            "buffer" : 0,
            "byteLength" : 378744,
            "byteOffset" : 378744
        },
        {
            "buffer" : 0,
            "byteLength" : 252496,
            "byteOffset" : 757488
        },
        {
            "buffer" : 0,
            "byteLength" : 211308,
            "byteOffset" : 1009984
        },
        {
            "buffer" : 0,
            "byteLength" : 76801,
            "byteOffset" : 1221292
        }
    ],
    "buffers" : [
        {
            "byteLength" : 1298096,
            "uri" : "data:application/octet-stream;base64,"
        }
    ]
}
