{
    "asset" : {
        "generator" : "Khronos glTF Blender I/O v1.0.5",
        "version" : "2.0"
    },
    "scene" : 0,
    "scenes" : [
        {
            "name" : "Scene",
            "nodes" : [
                0,
                1,
                2,
                3,
                4,
                5,
                6
            ]
        }
    ],
    "nodes" : [
        {
            "name" : "Light",
            "rotation" : [
                0.16907575726509094,
                0.7558803558349609,
                -0.27217137813568115,
                0.570947527885437
            ],
            "translation" : [
                4.076245307922363,
                5.903861999511719,
                -1.0054539442062378
            ]
        },
        {
            "name" : "Camera",
            "rotation" : [
                0.483536034822464,
                0.33687159419059753,
                -0.20870360732078552,
                0.7804827094078064
            ],
            "translation" : [
                7.358891487121582,
                4.958309173583984,
                6.925790786743164
            ]
        },
        {
            "name" : "Light.001",
            "rotation" : [
                0.5232754945755005,
                0.34203392267227173,
                -0.7269423604011536,
                0.284166157245636
            ],
            "translation" : [
                4.076245307922363,
                5.903862476348877,
                -1.0054532289505005
            ]
        },
        {
            "name" : "Camera.001",
            "rotation" : [
                0.8937963247299194,
                0.09062855690717697,
                -0.3857799172401428,
                0.20997287333011627
            ],
            "translation" : [
                7.358891487121582,
                4.958308696746826,
                6.925792217254639
            ]
        },
        {
            "name" : "Light.002",
            "rotation" : [
                -0.5709477066993713,
                0.2721712291240692,
                0.7558802962303162,
                0.16907566785812378
            ],
            "translation" : [
                4.076245307922363,
                5.903862953186035,
                -1.0054525136947632
            ]
        },
        {
            "name" : "Camera.002",
            "rotation" : [
                -0.7804825901985168,
                0.20870345830917358,
                0.33687177300453186,
                0.4835361838340759
            ],
            "translation" : [
                7.358891487121582,
                4.958308219909668,
                6.925793647766113
            ]
        },
        {
            "mesh" : 0,
            "name" : "\u7acb\u65b9\u4f53_8.001",
            "rotation" : [
                0.7071068286895752,
                0,
                0,
                0.7071067094802856
            ]
        }
    ],
    "materials" : [
        {
            "alphaMode" : "BLEND",
            "doubleSided" : true,
            "name" : "\u6041\u8d28",
            "pbrMetallicRoughness" : {
                "baseColorTexture" : {
                    "index" : 0,
                    "texCoord" : 0
                },
                "metallicFactor" : 1,
                "roughnessFactor" : 0.7642977237701416
            }
        },
        {
            "alphaMode" : "BLEND",
            "doubleSided" : true,
            "name" : "\u6041\u8d28.1.2",
            "pbrMetallicRoughness" : {
                "baseColorTexture" : {
                    "index" : 1,
                    "texCoord" : 0
                },
                "metallicFactor" : 1,
                "roughnessFactor" : 0.7642977237701416
            }
        },
        {
            "alphaMode" : "BLEND",
            "doubleSided" : true,
            "name" : "\u6041\u8d28.1",
            "pbrMetallicRoughness" : {
                "baseColorTexture" : {
                    "index" : 2,
                    "texCoord" : 0
                },
                "metallicFactor" : 1,
                "roughnessFactor" : 0.7642977237701416
            }
        },
        {
            "alphaMode" : "BLEND",
            "doubleSided" : true,
            "name" : "\u6750\u8d28.1",
            "pbrMetallicRoughness" : {
                "baseColorTexture" : {
                    "index" : 3,
                    "texCoord" : 0
                },
                "metallicFactor" : 1,
                "roughnessFactor" : 0.7642977237701416
            }
        }
    ],
    "meshes" : [
        {
            "name" : "\u7acb\u65b9\u4f53_8",
            "primitives" : [
                {
                    "attributes" : {
                        "POSITION" : 0,
                        "NORMAL" : 1,
                        "TEXCOORD_0" : 2
                    },
                    "indices" : 3,
                    "material" : 0
                },
                {
                    "attributes" : {
                        "POSITION" : 4,
                        "NORMAL" : 5,
                        "TEXCOORD_0" : 6
                    },
                    "indices" : 7,
                    "material" : 1
                },
                {
                    "attributes" : {
                        "POSITION" : 8,
                        "NORMAL" : 9,
                        "TEXCOORD_0" : 10
                    },
                    "indices" : 11,
                    "material" : 2
                },
                {
                    "attributes" : {
                        "POSITION" : 12,
                        "NORMAL" : 13,
                        "TEXCOORD_0" : 14
                    },
                    "indices" : 15,
                    "material" : 3
                }
            ]
        }
    ],
    "textures" : [
        {
            "source" : 0
        },
        {
            "source" : 1
        },
        {
            "source" : 1
        },
        {
            "source" : 1
        }
    ],
    "images" : [
        {
            "bufferView" : 4,
            "mimeType" : "image/png",
            "name" : "\u672a\u6807\u98984"
        },
        {
            "bufferView" : 9,
            "mimeType" : "image/png",
            "name" : "\u672a\u6807\u98983"
        }
    ],
    "accessors" : [
        {
            "bufferView" : 0,
            "componentType" : 5126,
            "count" : 936,
            "max" : [
                14.497000694274902,
                24.752002716064453,
                -9.9999998245167e-15
            ],
            "min" : [
                -14.497000694274902,
                -24.752002716064453,
                -97.6299819946289
            ],
            "type" : "VEC3"
        },
        {
            "bufferView" : 1,
            "componentType" : 5126,
            "count" : 936,
            "type" : "VEC3"
        },
        {
            "bufferView" : 2,
            "componentType" : 5126,
            "count" : 936,
            "type" : "VEC2"
        },
        {
            "bufferView" : 3,
            "componentType" : 5123,
            "count" : 2022,
            "type" : "SCALAR"
        },
        {
            "bufferView" : 5,
            "componentType" : 5126,
            "count" : 24,
            "max" : [
                12.621000289916992,
                9.331000328063965,
                -80.2149429321289
            ],
            "min" : [
                -12.621000289916992,
                -9.331000328063965,
                -97.38645935058594
            ],
            "type" : "VEC3"
        },
        {
            "bufferView" : 6,
            "componentType" : 5126,
            "count" : 24,
            "type" : "VEC3"
        },
        {
            "bufferView" : 7,
            "componentType" : 5126,
            "count" : 24,
            "type" : "VEC2"
        },
        {
            "bufferView" : 8,
            "componentType" : 5123,
            "count" : 54,
            "type" : "SCALAR"
        },
        {
            "bufferView" : 10,
            "componentType" : 5126,
            "count" : 24,
            "max" : [
                -4.368926048278809,
                -7.359162330627441,
                -96.61085510253906
            ],
            "min" : [
                -5.80953311920166,
                -8.799769401550293,
                -98.05146026611328
            ],
            "type" : "VEC3"
        },
        {
            "bufferView" : 11,
            "componentType" : 5126,
            "count" : 24,
            "type" : "VEC3"
        },
        {
            "bufferView" : 12,
            "componentType" : 5126,
            "count" : 24,
            "type" : "VEC2"
        },
        {
            "bufferView" : 13,
            "componentType" : 5123,
            "count" : 36,
            "type" : "SCALAR"
        },
        {
            "bufferView" : 14,
            "componentType" : 5126,
            "count" : 168,
            "max" : [
                5.031966209411621,
                8.923003196716309,
                -92.89810180664062
            ],
            "min" : [
                -5.80953311920166,
                -8.926704406738281,
                -107.79244232177734
            ],
            "type" : "VEC3"
        },
        {
            "bufferView" : 15,
            "componentType" : 5126,
            "count" : 168,
            "type" : "VEC3"
        },
        {
            "bufferView" : 16,
            "componentType" : 5126,
            "count" : 168,
            "type" : "VEC2"
        },
        {
            "bufferView" : 17,
            "componentType" : 5123,
            "count" : 252,
            "type" : "SCALAR"
        }
    ],
    "bufferViews" : [
        {
            "buffer" : 0,
            "byteLength" : 11232,
            "byteOffset" : 0
        },
        {
            "buffer" : 0,
            "byteLength" : 11232,
            "byteOffset" : 11232
        },
        {
            "buffer" : 0,
            "byteLength" : 7488,
            "byteOffset" : 22464
        },
        {
            "buffer" : 0,
            "byteLength" : 4044,
            "byteOffset" : 29952
        },
        {
            "buffer" : 0,
            "byteLength" : 84448,
            "byteOffset" : 33996
        },
        {
            "buffer" : 0,
            "byteLength" : 288,
            "byteOffset" : 118444
        },
        {
            "buffer" : 0,
            "byteLength" : 288,
            "byteOffset" : 118732
        },
        {
            "buffer" : 0,
            "byteLength" : 192,
            "byteOffset" : 119020
        },
        {
            "buffer" : 0,
            "byteLength" : 108,
            "byteOffset" : 119212
        },
        {
            "buffer" : 0,
            "byteLength" : 158596,
            "byteOffset" : 119320
        },
        {
            "buffer" : 0,
            "byteLength" : 288,
            "byteOffset" : 277916
        },
        {
            "buffer" : 0,
            "byteLength" : 288,
            "byteOffset" : 278204
        },
        {
            "buffer" : 0,
            "byteLength" : 192,
            "byteOffset" : 278492
        },
        {
            "buffer" : 0,
            "byteLength" : 72,
            "byteOffset" : 278684
        },
        {
            "buffer" : 0,
            "byteLength" : 2016,
            "byteOffset" : 278756
        },
        {
            "buffer" : 0,
            "byteLength" : 2016,
            "byteOffset" : 280772
        },
        {
            "buffer" : 0,
            "byteLength" : 1344,
            "byteOffset" : 282788
        },
        {
            "buffer" : 0,
            "byteLength" : 504,
            "byteOffset" : 284132
        }
    ],
    "buffers" : [
        {
            "byteLength" : 284636,
            "uri" : "data:application/octet-stream;base64,"
        }
    ]
}
