{
    "asset" : {
        "generator" : "Khronos glTF Blender I/O v1.0.5",
        "version" : "2.0"
    },
    "scene" : 0,
    "scenes" : [
        {
            "name" : "Scene",
            "nodes" : [
                0,
                1,
                2
            ]
        }
    ],
    "nodes" : [
        {
            "name" : "Light",
            "rotation" : [
                0.16907575726509094,
                0.7558803558349609,
                -0.27217137813568115,
                0.570947527885437
            ],
            "translation" : [
                4.076245307922363,
                5.903861999511719,
                -1.0054539442062378
            ]
        },
        {
            "name" : "Camera",
            "rotation" : [
                0.483536034822464,
                0.33687159419059753,
                -0.20870360732078552,
                0.7804827094078064
            ],
            "translation" : [
                7.358891487121582,
                4.958309173583984,
                6.925790786743164
            ]
        },
        {
            "mesh" : 0,
            "name" : "\u7ba1\u9053.000",
            "rotation" : [
                0.7071068286895752,
                0,
                0,
                0.7071067094802856
            ],
            "scale" : [
                0.011881771497428417,
                0.011881771497428417,
                0.011881771497428417
            ]
        }
    ],
    "materials" : [
        {
            "doubleSided" : true,
            "name" : "default.003",
            "pbrMetallicRoughness" : {
                "baseColorTexture" : {
                    "index" : 0,
                    "texCoord" : 0
                },
                "metallicFactor" : 0,
                "roughnessFactor" : 1
            }
        }
    ],
    "meshes" : [
        {
            "name" : "\u7ba1\u9053.000",
            "primitives" : [
                {
                    "attributes" : {
                        "POSITION" : 0,
                        "NORMAL" : 1,
                        "TEXCOORD_0" : 2
                    },
                    "indices" : 3,
                    "material" : 0
                }
            ]
        }
    ],
    "textures" : [
        {
            "source" : 0
        }
    ],
    "images" : [
        {
            "bufferView" : 4,
            "mimeType" : "image/png",
            "name" : "\u4fa7\u9762g_1_w_2"
        }
    ],
    "accessors" : [
        {
            "bufferView" : 0,
            "componentType" : 5126,
            "count" : 12369,
            "max" : [
                112.9000015258789,
                9.9999998245167e-15,
                112.9000015258789
            ],
            "min" : [
                -112.9000015258789,
                -5200,
                -112.9000015258789
            ],
            "type" : "VEC3"
        },
        {
            "bufferView" : 1,
            "componentType" : 5126,
            "count" : 12369,
            "type" : "VEC3"
        },
        {
            "bufferView" : 2,
            "componentType" : 5126,
            "count" : 12369,
            "type" : "VEC2"
        },
        {
            "bufferView" : 3,
            "componentType" : 5123,
            "count" : 54576,
            "type" : "SCALAR"
        }
    ],
    "bufferViews" : [
        {
            "buffer" : 0,
            "byteLength" : 148428,
            "byteOffset" : 0
        },
        {
            "buffer" : 0,
            "byteLength" : 148428,
            "byteOffset" : 148428
        },
        {
            "buffer" : 0,
            "byteLength" : 98952,
            "byteOffset" : 296856
        },
        {
            "buffer" : 0,
            "byteLength" : 109152,
            "byteOffset" : 395808
        },
        {
            "buffer" : 0,
            "byteLength" : 76801,
            "byteOffset" : 504960
        }
    ],
    "buffers" : [
        {
            "byteLength" : 581764,
            "uri" : "data:application/octet-stream;base64,"
        }
    ]
}
