{
    "asset" : {
        "generator" : "Khronos glTF Blender I/O v1.0.5",
        "version" : "2.0"
    },
    "scene" : 0,
    "scenes" : [
        {
            "name" : "Scene",
            "nodes" : [
                0,
                1,
                2,
                3,
                4,
                5,
                6,
                7,
                8,
                9,
                10,
                11
            ]
        }
    ],
    "nodes" : [
        {
            "name" : "Light",
            "rotation" : [
                0.16907575726509094,
                0.7558803558349609,
                -0.27217137813568115,
                0.570947527885437
            ],
            "translation" : [
                4.076245307922363,
                5.903861999511719,
                -1.0054539442062378
            ]
        },
        {
            "name" : "Camera",
            "rotation" : [
                0.483536034822464,
                0.33687159419059753,
                -0.20870360732078552,
                0.7804827094078064
            ],
            "translation" : [
                7.358891487121582,
                4.958309173583984,
                6.925790786743164
            ]
        },
        {
            "mesh" : 0,
            "name" : "shuichang\u6c34\u5382meiyou\u6ca1\u6709shuichi\u6c34\u6c60meiyoulou\u6ca1\u6709\u55bd",
            "rotation" : [
                0.7071068286895752,
                0,
                0,
                0.7071067094802856
            ],
            "scale" : [
                0.0212120208889246,
                0.0212120208889246,
                0.0212120208889246
            ]
        },
        {
            "mesh" : 1,
            "name" : "\u6c34\u5382.1",
            "rotation" : [
                0.7071068286895752,
                0,
                0,
                0.7071067094802856
            ],
            "scale" : [
                0.0212120208889246,
                0.0212120208889246,
                0.0212120208889246
            ],
            "translation" : [
                -39.09551239013672,
                0,
                -10.978215217590332
            ]
        },
        {
            "name" : "Light.001",
            "rotation" : [
                0.5232754945755005,
                0.34203392267227173,
                -0.7269423604011536,
                0.284166157245636
            ],
            "translation" : [
                4.076245307922363,
                5.903862476348877,
                -1.0054532289505005
            ]
        },
        {
            "name" : "Camera.001",
            "rotation" : [
                0.8937963247299194,
                0.09062855690717697,
                -0.3857799172401428,
                0.20997287333011627
            ],
            "translation" : [
                7.358891487121582,
                4.958308696746826,
                6.925792217254639
            ]
        },
        {
            "mesh" : 2,
            "name" : "\u5706\u67f1.1",
            "rotation" : [
                1,
                0,
                0,
                -1.3435884227419592e-07
            ],
            "scale" : [
                0.04012921825051308,
                0.04012921825051308,
                0.04012921825051308
            ],
            "translation" : [
                43.85560607910156,
                1.2893154621124268,
                52.422813415527344
            ]
        },
        {
            "mesh" : 3,
            "name" : "\u5706\u67f1.000",
            "rotation" : [
                1,
                0,
                0,
                -1.3435884227419592e-07
            ],
            "scale" : [
                0.04012921825051308,
                0.04012921825051308,
                0.04012921825051308
            ],
            "translation" : [
                -37.851741790771484,
                1.2893154621124268,
                52.422813415527344
            ]
        },
        {
            "mesh" : 4,
            "name" : "\u5706\u67f1",
            "rotation" : [
                0.7071068286895752,
                0,
                0,
                0.7071067094802856
            ],
            "scale" : [
                0.02306917868554592,
                0.02306917868554592,
                0.02306917868554592
            ],
            "translation" : [
                46.1079216003418,
                4.248705863952637,
                73.98245239257812
            ]
        },
        {
            "mesh" : 5,
            "name" : "\u5706\u67f1.002",
            "rotation" : [
                0.7071068286895752,
                0,
                0,
                0.7071067094802856
            ],
            "scale" : [
                0.02306917868554592,
                0.02306917868554592,
                0.02306917868554592
            ],
            "translation" : [
                -39.56191635131836,
                4.248705863952637,
                73.98245239257812
            ]
        },
        {
            "mesh" : 6,
            "name" : "\u5706\u67f1.003",
            "rotation" : [
                0.4809112548828125,
                -0.5123103857040405,
                0.518767774105072,
                0.48697271943092346
            ],
            "scale" : [
                0.02306917868554592,
                0.02306917868554592,
                0.02306917868554592
            ],
            "translation" : [
                -62.659515380859375,
                4.248705863952637,
                52.18522644042969
            ]
        },
        {
            "mesh" : 7,
            "name" : "\u5706\u67f1.004",
            "rotation" : [
                0.49605071544647217,
                -0.4976767897605896,
                0.5043107271194458,
                0.5019184947013855
            ],
            "scale" : [
                0.02306917868554592,
                0.02306917868554592,
                0.02306917868554592
            ],
            "translation" : [
                5.2292327880859375,
                4.631887435913086,
                52.20365524291992
            ]
        }
    ],
    "materials" : [
        {
            "doubleSided" : true,
            "name" : "default",
            "pbrMetallicRoughness" : {
                "baseColorTexture" : {
                    "index" : 0,
                    "texCoord" : 0
                },
                "metallicFactor" : 0,
                "roughnessFactor" : 1
            }
        },
        {
            "alphaMode" : "BLEND",
            "doubleSided" : true,
            "name" : "default.001",
            "pbrMetallicRoughness" : {
                "baseColorTexture" : {
                    "index" : 1,
                    "texCoord" : 0
                },
                "metallicFactor" : 0,
                "roughnessFactor" : 1
            }
        },
        {
            "doubleSided" : true,
            "name" : "default.002",
            "pbrMetallicRoughness" : {
                "baseColorTexture" : {
                    "index" : 2,
                    "texCoord" : 0
                },
                "metallicFactor" : 0,
                "roughnessFactor" : 1
            }
        },
        {
            "doubleSided" : true,
            "name" : "default.003",
            "pbrMetallicRoughness" : {
                "baseColorTexture" : {
                    "index" : 3,
                    "texCoord" : 0
                },
                "metallicFactor" : 0,
                "roughnessFactor" : 1
            }
        },
        {
            "doubleSided" : true,
            "name" : "default.004",
            "pbrMetallicRoughness" : {
                "baseColorTexture" : {
                    "index" : 4,
                    "texCoord" : 0
                },
                "metallicFactor" : 0,
                "roughnessFactor" : 1
            }
        },
        {
            "doubleSided" : true,
            "name" : "default.005",
            "pbrMetallicRoughness" : {
                "baseColorTexture" : {
                    "index" : 5,
                    "texCoord" : 0
                },
                "metallicFactor" : 0,
                "roughnessFactor" : 1
            }
        },
        {
            "doubleSided" : true,
            "name" : "default.006",
            "pbrMetallicRoughness" : {
                "baseColorTexture" : {
                    "index" : 6,
                    "texCoord" : 0
                },
                "metallicFactor" : 0,
                "roughnessFactor" : 1
            }
        },
        {
            "doubleSided" : true,
            "name" : "default.007",
            "pbrMetallicRoughness" : {
                "baseColorTexture" : {
                    "index" : 7,
                    "texCoord" : 0
                },
                "metallicFactor" : 0,
                "roughnessFactor" : 1
            }
        }
    ],
    "meshes" : [
        {
            "name" : "\u7a7a\u767d.8",
            "primitives" : [
                {
                    "attributes" : {
                        "POSITION" : 0,
                        "NORMAL" : 1,
                        "TEXCOORD_0" : 2
                    },
                    "indices" : 3,
                    "material" : 0
                }
            ]
        },
        {
            "name" : "\u6c34\u5382.1",
            "primitives" : [
                {
                    "attributes" : {
                        "POSITION" : 4,
                        "NORMAL" : 5,
                        "TEXCOORD_0" : 6
                    },
                    "indices" : 7,
                    "material" : 1
                }
            ]
        },
        {
            "name" : "\u5706\u67f1.1",
            "primitives" : [
                {
                    "attributes" : {
                        "POSITION" : 8,
                        "NORMAL" : 9,
                        "TEXCOORD_0" : 10
                    },
                    "indices" : 11,
                    "material" : 2
                }
            ]
        },
        {
            "name" : "\u5706\u67f1.000",
            "primitives" : [
                {
                    "attributes" : {
                        "POSITION" : 12,
                        "NORMAL" : 13,
                        "TEXCOORD_0" : 14
                    },
                    "indices" : 11,
                    "material" : 3
                }
            ]
        },
        {
            "name" : "\u5706\u67f1",
            "primitives" : [
                {
                    "attributes" : {
                        "POSITION" : 15,
                        "NORMAL" : 16,
                        "TEXCOORD_0" : 17
                    },
                    "indices" : 18,
                    "material" : 4
                }
            ]
        },
        {
            "name" : "\u5706\u67f1.002",
            "primitives" : [
                {
                    "attributes" : {
                        "POSITION" : 19,
                        "NORMAL" : 20,
                        "TEXCOORD_0" : 21
                    },
                    "indices" : 18,
                    "material" : 5
                }
            ]
        },
        {
            "name" : "\u5706\u67f1.003",
            "primitives" : [
                {
                    "attributes" : {
                        "POSITION" : 22,
                        "NORMAL" : 23,
                        "TEXCOORD_0" : 24
                    },
                    "indices" : 18,
                    "material" : 6
                }
            ]
        },
        {
            "name" : "\u5706\u67f1.004",
            "primitives" : [
                {
                    "attributes" : {
                        "POSITION" : 25,
                        "NORMAL" : 26,
                        "TEXCOORD_0" : 27
                    },
                    "indices" : 18,
                    "material" : 7
                }
            ]
        }
    ],
    "textures" : [
        {
            "source" : 0
        },
        {
            "source" : 0
        },
        {
            "source" : 1
        },
        {
            "source" : 1
        },
        {
            "source" : 0
        },
        {
            "source" : 0
        },
        {
            "source" : 0
        },
        {
            "source" : 0
        }
    ],
    "images" : [
        {
            "bufferView" : 4,
            "mimeType" : "image/png",
            "name" : "\u4fa7\u9762g_1_w_2"
        },
        {
            "bufferView" : 13,
            "mimeType" : "image/png",
            "name" : "Image_0"
        }
    ],
    "accessors" : [
        {
            "bufferView" : 0,
            "componentType" : 5126,
            "count" : 19557,
            "max" : [
                3775.235107421875,
                3799.107177734375,
                0
            ],
            "min" : [
                -3775.235107421875,
                -3799.107177734375,
                -507.61590576171875
            ],
            "type" : "VEC3"
        },
        {
            "bufferView" : 1,
            "componentType" : 5126,
            "count" : 19557,
            "type" : "VEC3"
        },
        {
            "bufferView" : 2,
            "componentType" : 5126,
            "count" : 19557,
            "type" : "VEC2"
        },
        {
            "bufferView" : 3,
            "componentType" : 5123,
            "count" : 74460,
            "type" : "SCALAR"
        },
        {
            "bufferView" : 5,
            "componentType" : 5126,
            "count" : 4099,
            "max" : [
                1001.9368286132812,
                613.4942016601562,
                0
            ],
            "min" : [
                -1001.9368286132812,
                -613.4942016601562,
                -1163.748779296875
            ],
            "type" : "VEC3"
        },
        {
            "bufferView" : 6,
            "componentType" : 5126,
            "count" : 4099,
            "type" : "VEC3"
        },
        {
            "bufferView" : 7,
            "componentType" : 5126,
            "count" : 4099,
            "type" : "VEC2"
        },
        {
            "bufferView" : 8,
            "componentType" : 5123,
            "count" : 10908,
            "type" : "SCALAR"
        },
        {
            "bufferView" : 9,
            "componentType" : 5126,
            "count" : 141,
            "max" : [
                375.80364990234375,
                0,
                375.80364990234375
            ],
            "min" : [
                -375.80364990234375,
                -144.43431091308594,
                -375.80364990234375
            ],
            "type" : "VEC3"
        },
        {
            "bufferView" : 10,
            "componentType" : 5126,
            "count" : 141,
            "type" : "VEC3"
        },
        {
            "bufferView" : 11,
            "componentType" : 5126,
            "count" : 141,
            "type" : "VEC2"
        },
        {
            "bufferView" : 12,
            "componentType" : 5123,
            "count" : 324,
            "type" : "SCALAR"
        },
        {
            "bufferView" : 14,
            "componentType" : 5126,
            "count" : 141,
            "max" : [
                375.80364990234375,
                0,
                375.80364990234375
            ],
            "min" : [
                -375.80364990234375,
                -144.43431091308594,
                -375.80364990234375
            ],
            "type" : "VEC3"
        },
        {
            "bufferView" : 15,
            "componentType" : 5126,
            "count" : 141,
            "type" : "VEC3"
        },
        {
            "bufferView" : 16,
            "componentType" : 5126,
            "count" : 141,
            "type" : "VEC2"
        },
        {
            "bufferView" : 17,
            "componentType" : 5126,
            "count" : 1480,
            "max" : [
                0,
                44.59107971191406,
                54.654884338378906
            ],
            "min" : [
                -89.18215942382812,
                -44.59107971191406,
                -54.654884338378906
            ],
            "type" : "VEC3"
        },
        {
            "bufferView" : 18,
            "componentType" : 5126,
            "count" : 1480,
            "type" : "VEC3"
        },
        {
            "bufferView" : 19,
            "componentType" : 5126,
            "count" : 1480,
            "type" : "VEC2"
        },
        {
            "bufferView" : 20,
            "componentType" : 5123,
            "count" : 4128,
            "type" : "SCALAR"
        },
        {
            "bufferView" : 21,
            "componentType" : 5126,
            "count" : 1480,
            "max" : [
                0,
                44.59107971191406,
                54.654884338378906
            ],
            "min" : [
                -89.18215942382812,
                -44.59107971191406,
                -54.654884338378906
            ],
            "type" : "VEC3"
        },
        {
            "bufferView" : 22,
            "componentType" : 5126,
            "count" : 1480,
            "type" : "VEC3"
        },
        {
            "bufferView" : 23,
            "componentType" : 5126,
            "count" : 1480,
            "type" : "VEC2"
        },
        {
            "bufferView" : 24,
            "componentType" : 5126,
            "count" : 1480,
            "max" : [
                0,
                44.59107971191406,
                54.654884338378906
            ],
            "min" : [
                -89.18215942382812,
                -44.59107971191406,
                -54.654884338378906
            ],
            "type" : "VEC3"
        },
        {
            "bufferView" : 25,
            "componentType" : 5126,
            "count" : 1480,
            "type" : "VEC3"
        },
        {
            "bufferView" : 26,
            "componentType" : 5126,
            "count" : 1480,
            "type" : "VEC2"
        },
        {
            "bufferView" : 27,
            "componentType" : 5126,
            "count" : 1480,
            "max" : [
                0,
                44.59107971191406,
                54.654884338378906
            ],
            "min" : [
                -89.18215942382812,
                -44.59107971191406,
                -54.654884338378906
            ],
            "type" : "VEC3"
        },
        {
            "bufferView" : 28,
            "componentType" : 5126,
            "count" : 1480,
            "type" : "VEC3"
        },
        {
            "bufferView" : 29,
            "componentType" : 5126,
            "count" : 1480,
            "type" : "VEC2"
        }
    ],
    "bufferViews" : [
        {
            "buffer" : 0,
            "byteLength" : 234684,
            "byteOffset" : 0
        },
        {
            "buffer" : 0,
            "byteLength" : 234684,
            "byteOffset" : 234684
        },
        {
            "buffer" : 0,
            "byteLength" : 156456,
            "byteOffset" : 469368
        },
        {
            "buffer" : 0,
            "byteLength" : 148920,
            "byteOffset" : 625824
        },
        {
            "buffer" : 0,
            "byteLength" : 76801,
            "byteOffset" : 774744
        },
        {
            "buffer" : 0,
            "byteLength" : 49188,
            "byteOffset" : 851548
        },
        {
            "buffer" : 0,
            "byteLength" : 49188,
            "byteOffset" : 900736
        },
        {
            "buffer" : 0,
            "byteLength" : 32792,
            "byteOffset" : 949924
        },
        {
            "buffer" : 0,
            "byteLength" : 21816,
            "byteOffset" : 982716
        },
        {
            "buffer" : 0,
            "byteLength" : 1692,
            "byteOffset" : 1004532
        },
        {
            "buffer" : 0,
            "byteLength" : 1692,
            "byteOffset" : 1006224
        },
        {
            "buffer" : 0,
            "byteLength" : 1128,
            "byteOffset" : 1007916
        },
        {
            "buffer" : 0,
            "byteLength" : 648,
            "byteOffset" : 1009044
        },
        {
            "buffer" : 0,
            "byteLength" : 123402,
            "byteOffset" : 1009692
        },
        {
            "buffer" : 0,
            "byteLength" : 1692,
            "byteOffset" : 1133096
        },
        {
            "buffer" : 0,
            "byteLength" : 1692,
            "byteOffset" : 1134788
        },
        {
            "buffer" : 0,
            "byteLength" : 1128,
            "byteOffset" : 1136480
        },
        {
            "buffer" : 0,
            "byteLength" : 17760,
            "byteOffset" : 1137608
        },
        {
            "buffer" : 0,
            "byteLength" : 17760,
            "byteOffset" : 1155368
        },
        {
            "buffer" : 0,
            "byteLength" : 11840,
            "byteOffset" : 1173128
        },
        {
            "buffer" : 0,
            "byteLength" : 8256,
            "byteOffset" : 1184968
        },
        {
            "buffer" : 0,
            "byteLength" : 17760,
            "byteOffset" : 1193224
        },
        {
            "buffer" : 0,
            "byteLength" : 17760,
            "byteOffset" : 1210984
        },
        {
            "buffer" : 0,
            "byteLength" : 11840,
            "byteOffset" : 1228744
        },
        {
            "buffer" : 0,
            "byteLength" : 17760,
            "byteOffset" : 1240584
        },
        {
            "buffer" : 0,
            "byteLength" : 17760,
            "byteOffset" : 1258344
        },
        {
            "buffer" : 0,
            "byteLength" : 11840,
            "byteOffset" : 1276104
        },
        {
            "buffer" : 0,
            "byteLength" : 17760,
            "byteOffset" : 1287944
        },
        {
            "buffer" : 0,
            "byteLength" : 17760,
            "byteOffset" : 1305704
        },
        {
            "buffer" : 0,
            "byteLength" : 11840,
            "byteOffset" : 1323464
        }
    ],
    "buffers" : [
        {
            "byteLength" : 1335304,
            "uri" : "data:application/octet-stream;base64,"
        }
    ]
}
