{
    "asset" : {
        "generator" : "Khronos glTF Blender I/O v1.0.5",
        "version" : "2.0"
    },
    "scene" : 0,
    "scenes" : [
        {
            "name" : "Scene",
            "nodes" : [
                0,
                1,
                2
            ]
        }
    ],
    "nodes" : [
        {
            "name" : "Light",
            "rotation" : [
                0.16907575726509094,
                0.7558803558349609,
                -0.27217137813568115,
                0.570947527885437
            ],
            "translation" : [
                4.076245307922363,
                5.903861999511719,
                -1.0054539442062378
            ]
        },
        {
            "name" : "Camera",
            "rotation" : [
                0.483536034822464,
                0.33687159419059753,
                -0.20870360732078552,
                0.7804827094078064
            ],
            "translation" : [
                7.358891487121582,
                4.958309173583984,
                6.925790786743164
            ]
        },
        {
            "mesh" : 0,
            "name" : "\u5706\u67f1.1",
            "rotation" : [
                0.7071068286895752,
                0,
                0,
                0.7071067094802856
            ],
            "scale" : [
                0.017393117770552635,
                0.017393117770552635,
                0.017393117770552635
            ]
        }
    ],
    "materials" : [
        {
            "doubleSided" : true,
            "name" : "default",
            "pbrMetallicRoughness" : {
                "baseColorTexture" : {
                    "index" : 0,
                    "texCoord" : 0
                },
                "metallicFactor" : 0,
                "roughnessFactor" : 1
            }
        }
    ],
    "meshes" : [
        {
            "name" : "\u5706\u67f1.1",
            "primitives" : [
                {
                    "attributes" : {
                        "POSITION" : 0,
                        "NORMAL" : 1,
                        "TEXCOORD_0" : 2
                    },
                    "indices" : 3,
                    "material" : 0
                }
            ]
        }
    ],
    "textures" : [
        {
            "source" : 0
        }
    ],
    "images" : [
        {
            "bufferView" : 4,
            "mimeType" : "image/png",
            "name" : "\u4fa7\u9762g_1_w_2"
        }
    ],
    "accessors" : [
        {
            "bufferView" : 0,
            "componentType" : 5126,
            "count" : 111,
            "max" : [
                375.80364990234375,
                375.80364990234375,
                0
            ],
            "min" : [
                -375.80364990234375,
                -375.80364990234375,
                -144.43431091308594
            ],
            "type" : "VEC3"
        },
        {
            "bufferView" : 1,
            "componentType" : 5126,
            "count" : 111,
            "type" : "VEC3"
        },
        {
            "bufferView" : 2,
            "componentType" : 5126,
            "count" : 111,
            "type" : "VEC2"
        },
        {
            "bufferView" : 3,
            "componentType" : 5123,
            "count" : 324,
            "type" : "SCALAR"
        }
    ],
    "bufferViews" : [
        {
            "buffer" : 0,
            "byteLength" : 1332,
            "byteOffset" : 0
        },
        {
            "buffer" : 0,
            "byteLength" : 1332,
            "byteOffset" : 1332
        },
        {
            "buffer" : 0,
            "byteLength" : 888,
            "byteOffset" : 2664
        },
        {
            "buffer" : 0,
            "byteLength" : 648,
            "byteOffset" : 3552
        },
        {
            "buffer" : 0,
            "byteLength" : 76801,
            "byteOffset" : 4200
        }
    ],
    "buffers" : [
        {
            "byteLength" : 81004,
            "uri" : "data:application/octet-stream;base64,"
        }
    ]
}
