{
    "asset" : {
        "generator" : "Khronos glTF Blender I/O v1.0.5",
        "version" : "2.0"
    },
    "scene" : 0,
    "scenes" : [
        {
            "name" : "Scene",
            "nodes" : [
                0
            ]
        }
    ],
    "nodes" : [
        {
            "mesh" : 0,
            "name" : "\u7a7a\u767d.8",
            "rotation" : [
                0.7071068286895752,
                0,
                0,
                0.7071067094802856
            ],
            "scale" : [
                0.014662464149296284,
                0.014662464149296284,
                0.014662464149296284
            ]
        }
    ],
    "materials" : [
        {
            "doubleSided" : true,
            "name" : "default.001",
            "pbrMetallicRoughness" : {
                "baseColorTexture" : {
                    "index" : 0,
                    "texCoord" : 0
                },
                "metallicFactor" : 0,
                "roughnessFactor" : 1
            }
        }
    ],
    "meshes" : [
        {
            "name" : "\u7a7a\u767d.8",
            "primitives" : [
                {
                    "attributes" : {
                        "POSITION" : 0,
                        "NORMAL" : 1,
                        "TEXCOORD_0" : 2
                    },
                    "indices" : 3,
                    "material" : 0
                }
            ]
        }
    ],
    "textures" : [
        {
            "source" : 0
        }
    ],
    "images" : [
        {
            "bufferView" : 4,
            "mimeType" : "image/png",
            "name" : "\u4fa7\u9762g_1_w_2"
        }
    ],
    "accessors" : [
        {
            "bufferView" : 0,
            "componentType" : 5126,
            "count" : 40801,
            "max" : [
                3660.703857421875,
                4362.47216796875,
                221.87725830078125
            ],
            "min" : [
                -4138.7490234375,
                -3420.655029296875,
                -1002.1441040039062
            ],
            "type" : "VEC3"
        },
        {
            "bufferView" : 1,
            "componentType" : 5126,
            "count" : 40801,
            "type" : "VEC3"
        },
        {
            "bufferView" : 2,
            "componentType" : 5126,
            "count" : 40801,
            "type" : "VEC2"
        },
        {
            "bufferView" : 3,
            "componentType" : 5123,
            "count" : 156960,
            "type" : "SCALAR"
        }
    ],
    "bufferViews" : [
        {
            "buffer" : 0,
            "byteLength" : 489612,
            "byteOffset" : 0
        },
        {
            "buffer" : 0,
            "byteLength" : 489612,
            "byteOffset" : 489612
        },
        {
            "buffer" : 0,
            "byteLength" : 326408,
            "byteOffset" : 979224
        },
        {
            "buffer" : 0,
            "byteLength" : 313920,
            "byteOffset" : 1305632
        },
        {
            "buffer" : 0,
            "byteLength" : 76801,
            "byteOffset" : 1619552
        }
    ],
    "buffers" : [
        {
            "byteLength" : 1696356,
            "uri" : "data:application/octet-stream;base64,"
        }
    ]
}
