{
    "asset" : {
        "generator" : "Khronos glTF Blender I/O v1.0.5",
        "version" : "2.0"
    },
    "scene" : 0,
    "scenes" : [
        {
            "name" : "Scene",
            "nodes" : [
                0,
                1,
                2
            ]
        }
    ],
    "nodes" : [
        {
            "mesh" : 0,
            "name" : "\u7ba1\u9053",
            "rotation" : [
                0.7071068286895752,
                0,
                0,
                0.7071067094802856
            ],
            "scale" : [
                0.013367843814194202,
                0.013367843814194202,
                0.013367843814194202
            ]
        },
        {
            "mesh" : 1,
            "name" : "\u6c34\u4e95",
            "rotation" : [
                0.7071068286895752,
                0,
                0,
                0.7071067094802856
            ],
            "scale" : [
                0.013367843814194202,
                0.013367843814194202,
                0.013367843814194202
            ]
        },
        {
            "mesh" : 2,
            "name" : "\u7a7a\u767d.1",
            "rotation" : [
                0.7071068286895752,
                0,
                0,
                0.7071067094802856
            ],
            "scale" : [
                0.013367843814194202,
                0.013367843814194202,
                0.013367843814194202
            ]
        }
    ],
    "materials" : [
        {
            "doubleSided" : true,
            "name" : "default",
            "pbrMetallicRoughness" : {
                "baseColorTexture" : {
                    "index" : 0,
                    "texCoord" : 0
                },
                "metallicFactor" : 0,
                "roughnessFactor" : 1
            }
        }
    ],
    "meshes" : [
        {
            "name" : "\u7ba1\u9053",
            "primitives" : [
                {
                    "attributes" : {
                        "POSITION" : 0,
                        "NORMAL" : 1,
                        "TEXCOORD_0" : 2
                    },
                    "indices" : 3,
                    "material" : 0
                }
            ]
        },
        {
            "name" : "\u6c34\u4e95",
            "primitives" : [
                {
                    "attributes" : {
                        "POSITION" : 4,
                        "NORMAL" : 5,
                        "TEXCOORD_0" : 6
                    },
                    "indices" : 7,
                    "material" : 0
                }
            ]
        },
        {
            "name" : "\u7a7a\u767d.1",
            "primitives" : [
                {
                    "attributes" : {
                        "POSITION" : 8,
                        "NORMAL" : 9,
                        "TEXCOORD_0" : 10
                    },
                    "indices" : 11,
                    "material" : 0
                }
            ]
        }
    ],
    "textures" : [
        {
            "source" : 0
        }
    ],
    "images" : [
        {
            "bufferView" : 4,
            "mimeType" : "image/png",
            "name" : "1"
        }
    ],
    "accessors" : [
        {
            "bufferView" : 0,
            "componentType" : 5126,
            "count" : 19484,
            "max" : [
                2455.6572265625,
                3781.32080078125,
                -119.57913208007812
            ],
            "min" : [
                -3505.992919921875,
                -3115.87548828125,
                -444.0748596191406
            ],
            "type" : "VEC3"
        },
        {
            "bufferView" : 1,
            "componentType" : 5126,
            "count" : 19484,
            "type" : "VEC3"
        },
        {
            "bufferView" : 2,
            "componentType" : 5126,
            "count" : 19484,
            "type" : "VEC2"
        },
        {
            "bufferView" : 3,
            "componentType" : 5123,
            "count" : 74616,
            "type" : "SCALAR"
        },
        {
            "bufferView" : 5,
            "componentType" : 5126,
            "count" : 222,
            "max" : [
                2699.231689453125,
                3543.252197265625,
                -10.262382507324219
            ],
            "min" : [
                -2769.089599609375,
                1659.5245361328125,
                -372.2531433105469
            ],
            "type" : "VEC3"
        },
        {
            "bufferView" : 6,
            "componentType" : 5126,
            "count" : 222,
            "type" : "VEC3"
        },
        {
            "bufferView" : 7,
            "componentType" : 5126,
            "count" : 222,
            "type" : "VEC2"
        },
        {
            "bufferView" : 8,
            "componentType" : 5123,
            "count" : 648,
            "type" : "SCALAR"
        },
        {
            "bufferView" : 9,
            "componentType" : 5126,
            "count" : 21080,
            "max" : [
                3899.726318359375,
                3891.563720703125,
                9.000000180878209e-14
            ],
            "min" : [
                -3899.726318359375,
                -3891.563720703125,
                -1224.0213623046875
            ],
            "type" : "VEC3"
        },
        {
            "bufferView" : 10,
            "componentType" : 5126,
            "count" : 21080,
            "type" : "VEC3"
        },
        {
            "bufferView" : 11,
            "componentType" : 5126,
            "count" : 21080,
            "type" : "VEC2"
        },
        {
            "bufferView" : 12,
            "componentType" : 5123,
            "count" : 81696,
            "type" : "SCALAR"
        }
    ],
    "bufferViews" : [
        {
            "buffer" : 0,
            "byteLength" : 233808,
            "byteOffset" : 0
        },
        {
            "buffer" : 0,
            "byteLength" : 233808,
            "byteOffset" : 233808
        },
        {
            "buffer" : 0,
            "byteLength" : 155872,
            "byteOffset" : 467616
        },
        {
            "buffer" : 0,
            "byteLength" : 149232,
            "byteOffset" : 623488
        },
        {
            "buffer" : 0,
            "byteLength" : 80391,
            "byteOffset" : 772720
        },
        {
            "buffer" : 0,
            "byteLength" : 2664,
            "byteOffset" : 853112
        },
        {
            "buffer" : 0,
            "byteLength" : 2664,
            "byteOffset" : 855776
        },
        {
            "buffer" : 0,
            "byteLength" : 1776,
            "byteOffset" : 858440
        },
        {
            "buffer" : 0,
            "byteLength" : 1296,
            "byteOffset" : 860216
        },
        {
            "buffer" : 0,
            "byteLength" : 252960,
            "byteOffset" : 861512
        },
        {
            "buffer" : 0,
            "byteLength" : 252960,
            "byteOffset" : 1114472
        },
        {
            "buffer" : 0,
            "byteLength" : 168640,
            "byteOffset" : 1367432
        },
        {
            "buffer" : 0,
            "byteLength" : 163392,
            "byteOffset" : 1536072
        }
    ],
    "buffers" : [
        {
            "byteLength" : 1699464,
            "uri" : "data:application/octet-stream;base64,"
        }
    ]
}
